<?xml version="1.0" standalone="no"?><!DOCTYPE svg PUBLIC "-//W3C//DTD SVG 1.1//EN" "http://www.w3.org/Graphics/SVG/1.1/DTD/svg11.dtd"><svg t="1573202468362" class="icon" viewBox="0 0 1024 1024" version="1.1" xmlns="http://www.w3.org/2000/svg" p-id="5529" xmlns:xlink="http://www.w3.org/1999/xlink" width="200" height="200"><defs><style type="text/css"></style></defs><path d="M808.888757 66.949808 213.945697 66.949808c-54.68753 0-99.157347 44.469817-99.157347 99.157347l0 594.943061c0 54.68753 44.469817 99.157347 99.157347 99.157347l594.943061 0c54.68753 0 99.157347-44.469817 99.157347-99.157347L908.046105 166.107155C908.045081 111.419625 863.576287 66.949808 808.888757 66.949808zM858.466919 761.049193c0 27.330462-22.248723 49.578162-49.578162 49.578162L213.945697 810.627355c-27.330462 0-49.578162-22.248723-49.578162-49.578162L164.367535 166.107155c0-27.330462 22.248723-49.578162 49.578162-49.578162l594.943061 0c27.330462 0 49.578162 22.248723 49.578162 49.578162L858.466919 761.049193z" p-id="5530" fill="#d4237a"></path><path d="M619.022479 567.891961l92.040253-73.616648 59.286268 39.506782c4.236488 2.808976 9.006118 4.164856 13.725606 4.164856 8.014534 0 15.879666-3.872191 20.649296-11.038404 7.603165-11.402701 4.526083-26.774807-6.874571-34.374902l-74.367755-49.578162c-9.248641-6.15007-20.842701-5.036713-29.02608 1.524726l-0.217964-0.265036L576.319911 538.550703 401.511583 418.35725c-0.071631-0.049119-0.146333-0.049119-0.193405-0.096191-2.032286-1.355881-4.332678-2.106987-6.658653-2.833535-0.773619-0.240477-1.474584-0.773619-2.275833-0.919952-2.104941-0.435928-4.259-0.193405-6.437619-0.071631-0.99363 0.071631-2.010797-0.193405-2.976798 0-1.090844 0.193405-2.082428 0.86981-3.148713 1.234107-2.007727 0.654916-4.043083 1.209548-5.857405 2.397606-0.074701 0.047072-0.170892 0.047072-0.242524 0.096191l-148.735509 99.157347c-11.400654 7.600095-14.476713 22.972201-6.874571 34.374902 4.76963 7.166213 12.634762 11.038404 20.649296 11.038404 4.719488 0 9.489118-1.355881 13.725606-4.164856l134.76738-89.836051L770.05838 731.902362c4.28356 2.955308 9.174963 4.358261 14.016225 4.358261 7.892761 0 15.639189-3.753487 20.455891-10.748808 7.746428-11.281951 4.891404-26.700105-6.390547-34.472116L619.022479 567.891961z" p-id="5531" fill="#d4237a"></path><path d="M573.390185 389.210419c61.511959 0 111.551632-50.039673 111.551632-111.551632s-50.039673-111.551632-111.551632-111.551632-111.551632 50.039673-111.551632 111.551632S511.878227 389.210419 573.390185 389.210419zM573.390185 215.685317c34.181497 0 61.97347 27.79095 61.97347 61.97347s-27.79095 61.97347-61.97347 61.97347c-34.181497 0-61.97347-27.79095-61.97347-61.97347S539.208689 215.685317 573.390185 215.685317z" p-id="5532" fill="#d4237a"></path></svg>