<?xml version="1.0" standalone="no"?><!DOCTYPE svg PUBLIC "-//W3C//DTD SVG 1.1//EN" "http://www.w3.org/Graphics/SVG/1.1/DTD/svg11.dtd"><svg t="1573202557459" class="icon" viewBox="0 0 1144 1024" version="1.1" xmlns="http://www.w3.org/2000/svg" p-id="7390" xmlns:xlink="http://www.w3.org/1999/xlink" width="223.4375" height="200"><defs><style type="text/css"></style></defs><path d="M1005.93 512v-12.047c0-102.4-84.33-186.73-186.73-186.73H596.33v-78.305c48.188-12.047 90.352-60.236 90.352-114.447C686.682 54.21 632.471 0 566.212 0s-120.47 54.212-120.47 120.47c0 54.212 36.14 102.4 90.352 114.448v78.306H319.247c-102.4 0-186.73 84.329-186.73 186.729V512C54.213 524.047 0 590.306 0 668.612s54.212 138.54 126.494 156.612c6.024 96.376 84.33 174.682 186.73 174.682H819.2c102.4 0 180.706-78.306 186.73-174.682 72.282-12.048 126.494-78.306 126.494-156.612 6.023-78.306-48.189-144.565-126.495-156.612zM126.493 758.965c-36.141-12.047-66.259-48.189-66.259-90.353s30.118-78.306 66.26-96.377v186.73zM512 120.47c0-30.118 24.094-60.236 60.235-60.236 30.118 0 60.236 24.094 60.236 60.236s-24.095 60.235-60.236 60.235C536.095 174.682 512 150.588 512 120.47z m433.694 692.705c0 72.283-54.212 126.495-126.494 126.495H319.247c-72.282 0-126.494-54.212-126.494-126.495V499.953c0-72.282 54.212-126.494 126.494-126.494h505.977c72.282 0 126.494 54.212 126.494 126.494v313.223h-6.024z m60.235-54.211v-186.73c42.165 12.047 66.26 48.189 66.26 96.377 6.023 42.164-24.095 78.306-66.26 90.353z" p-id="7391" fill="#0f80bc"></path><path d="M789.082 499.953c-48.188 0-90.353 42.165-90.353 90.353s42.165 90.353 90.353 90.353 90.353-42.165 90.353-90.353-42.164-90.353-90.353-90.353z m0 120.47c-18.07 0-30.117-12.047-30.117-30.117s12.047-30.118 30.117-30.118 30.118 12.047 30.118 30.118-12.047 30.118-30.118 30.118z m-439.717-120.47c-48.189 0-90.353 42.165-90.353 90.353s42.164 90.353 90.353 90.353 90.353-42.165 90.353-90.353-42.165-90.353-90.353-90.353z m0 120.47c-18.07 0-30.118-12.047-30.118-30.117s12.047-30.118 30.118-30.118 30.117 12.047 30.117 30.118-12.047 30.118-30.117 30.118z m301.175 150.59H487.906c-18.07 0-30.118 12.047-30.118 30.117s12.047 30.118 30.118 30.118H650.54c18.07 0 30.118-12.047 30.118-30.118 0-12.047-12.047-30.117-30.118-30.117z" p-id="7392" fill="#0f80bc"></path></svg>