<?xml version="1.0" standalone="no"?><!DOCTYPE svg PUBLIC "-//W3C//DTD SVG 1.1//EN" "http://www.w3.org/Graphics/SVG/1.1/DTD/svg11.dtd"><svg t="1573202446664" class="icon" viewBox="0 0 1024 1024" version="1.1" xmlns="http://www.w3.org/2000/svg" p-id="4740" xmlns:xlink="http://www.w3.org/1999/xlink" width="200" height="200"><defs><style type="text/css"></style></defs><path d="M158.222309 511.789998c0-195.207249 158.261299-353.468548 353.456956-353.468548l0 106.033909c0 19.537154 15.84126 35.355429 35.356029 35.355429 19.536754 0 49.078525-35.355429 49.078525-35.355429l198.344922-200.290203L511.679265 64.065156c-247.251164 0-447.71325 200.462087-447.71325 447.724843 0 117.628848 45.714805 224.329305 119.918495 304.228933l66.638219-66.638619C193.384269 686.579091 158.222309 603.402685 158.222309 511.789998zM839.486212 207.53948l-66.638619 66.649212c57.161045 62.801221 92.30122 145.978227 92.30122 237.601306 0 195.196257-158.262298 353.457356-353.469348 353.457356l0-106.012923 0-0.020986c0-19.515768-15.828668-35.355829-35.333444-35.355829-19.536754 0-49.088518 35.355829-49.088518 35.355829l0 0 0 0-198.345522 200.289804 282.767484 0c247.283742 0 447.725442-200.461687 447.725442-447.71325C959.404508 394.149559 913.689702 287.449701 839.486212 207.53948z" p-id="4741" fill="#9ebb7a"></path></svg>