<?xml version="1.0" standalone="no"?><!DOCTYPE svg PUBLIC "-//W3C//DTD SVG 1.1//EN" "http://www.w3.org/Graphics/SVG/1.1/DTD/svg11.dtd"><svg t="1573203593241" class="icon" viewBox="0 0 1024 1024" version="1.1" xmlns="http://www.w3.org/2000/svg" p-id="2416" xmlns:xlink="http://www.w3.org/1999/xlink" width="200" height="200"><defs><style type="text/css"></style></defs><path d="M755.048 158.32h-488.305c-74.214 0-134.637 60.422-134.637 134.637v394.496c0 74.215 60.422 134.637 134.637 134.637h244.207c0.547 0 0.985 0 1.532-0.109 0.328 0 28.022-1.861 61.626 1.861 42.143 4.707 73.448 15.872 90.524 32.181 4.379 4.159 9.961 6.239 15.544 6.239 5.91 0 11.712-2.299 16.2-6.896 8.538-8.976 8.319-23.096-0.656-31.634-24.519-23.643-63.815-38.53-116.576-44.441-34.59-3.831-63.487-2.408-68.851-2.080h-243.55c-49.476 0-89.758-40.282-89.758-89.758v-394.496c0-49.476 40.282-89.758 89.758-89.758h488.414c49.476 0 89.758 40.282 89.758 89.758v394.496c0 49.476-40.282 89.758-89.758 89.758-12.369 0-22.44 10.070-22.44 22.439s10.071 22.439 22.44 22.439c74.215 0 134.637-60.422 134.637-134.637v-394.495c-0.109-74.215-60.532-134.637-134.746-134.637M755.048 158.32z" p-id="2417" fill="#ea9518"></path><path d="M712.905 478.165l-303.972-180.172c-6.897-4.16-15.544-4.16-22.549-0.219-7.006 3.941-11.275 11.384-11.275 19.484v365.818c0 12.369 10.070 22.44 22.44 22.44 12.369 0 22.439-10.071 22.439-22.44v-326.413l238.624 141.424-128.506 81.329c-6.13 3.722-26.381 13.793-41.376 13.026-12.369-0.657-22.877 8.866-23.425 21.235-0.657 12.37 8.866 22.877 21.235 23.535 1.204 0.109 2.518 0.109 3.722 0.109 30.101 0 59.875-17.623 63.378-19.703 0.109-0.109 0.219-0.109 0.328-0.219l159.594-101.032c6.568-4.16 10.508-11.493 10.399-19.266-0.219-7.771-4.379-14.996-11.056-18.936M712.905 478.165z" p-id="2418" fill="#ea9518"></path></svg>