<?xml version="1.0" standalone="no"?><!DOCTYPE svg PUBLIC "-//W3C//DTD SVG 1.1//EN" "http://www.w3.org/Graphics/SVG/1.1/DTD/svg11.dtd"><svg t="1573207566325" class="icon" viewBox="0 0 1024 1024" version="1.1" xmlns="http://www.w3.org/2000/svg" p-id="4532" width="250" height="250" xmlns:xlink="http://www.w3.org/1999/xlink"><defs><style type="text/css"></style></defs><path d="M918.4 297.6c-12.8-12.8-32-9.6-44.8 3.2l-358.4 352L150.4 300.8C140.8 288 118.4 284.8 105.6 297.6 99.2 304 96 313.6 96 323.2c0 6.4 3.2 16 9.6 22.4l387.2 377.6c0 0 0 0 0 0 0 0 0 0 0 0 0 0 3.2 0 3.2 3.2 3.2 0 3.2 3.2 6.4 3.2 3.2 0 3.2 0 6.4 0 3.2 0 3.2 0 6.4 0 3.2 0 3.2 0 6.4 0 3.2 0 3.2 0 6.4 0 3.2 0 3.2-3.2 6.4-3.2 0 0 3.2 0 3.2-3.2 0 0 0 0 0 0 0 0 0 0 0 0l380.8-374.4C931.2 329.6 931.2 310.4 918.4 297.6z" p-id="4533" fill="#ffffff"></path></svg>