<?xml version="1.0" standalone="no"?><!DOCTYPE svg PUBLIC "-//W3C//DTD SVG 1.1//EN" "http://www.w3.org/Graphics/SVG/1.1/DTD/svg11.dtd"><svg t="1573723933401" class="icon" viewBox="0 0 1096 1024" version="1.1" xmlns="http://www.w3.org/2000/svg" p-id="22768" xmlns:xlink="http://www.w3.org/1999/xlink" width="267.578125" height="250"><defs><style type="text/css"></style></defs><path d="M72.562404 511.101048C72.562404 250.183352 284.318147 38.427609 545.235843 38.427609c260.911925 0 472.667669 211.755743 472.667669 472.673439 0 260.911925-211.755743 472.667669-472.667669 472.667669-260.917695 0-472.673439-211.755743-472.673439-472.667669z m0 0" fill="#FFCF06" p-id="22769"></path><path d="M723.07951 333.252765c9.511122 10.021182 9.511122 25.734958 0 35.75614L403.142546 688.944715c-10.021182 9.511122-25.734958 9.511122-35.75614 0-9.511122-10.021182-9.511122-25.734958 0-35.754986L687.32337 333.252765c10.021182-9.512276 25.734958-9.512276 35.75614 0z m0 0" fill="#FFFFFF" p-id="22770"></path><path d="M367.386406 333.252765c10.021182-9.511122 25.734958-9.511122 35.75614 0L723.07951 653.188575c9.511122 10.021182 9.511122 25.734958 0 35.754986-10.021182 9.511122-25.734958 9.511122-35.754986 0L367.386406 369.008905c-9.511122-10.022336-9.511122-25.736112 0-35.75614z m0 0" fill="#FFFFFF" p-id="22771"></path></svg>