<?xml version="1.0" standalone="no"?><!DOCTYPE svg PUBLIC "-//W3C//DTD SVG 1.1//EN" "http://www.w3.org/Graphics/SVG/1.1/DTD/svg11.dtd"><svg t="1574235427226" class="icon" viewBox="0 0 1024 1024" version="1.1" xmlns="http://www.w3.org/2000/svg" p-id="2662" xmlns:xlink="http://www.w3.org/1999/xlink" width="250" height="250"><defs><style type="text/css"></style></defs><path d="M286.528 512c0 63.04-51.072 114.112-114.112 114.112C109.376 626.112 58.304 575.04 58.304 512s51.072-114.112 114.112-114.112C235.456 397.888 286.528 448.96 286.528 512zM512 397.888C448.96 397.888 397.888 448.96 397.888 512S448.96 626.112 512 626.112 626.112 575.04 626.112 512 575.04 397.888 512 397.888zM851.648 397.888c-63.04 0-114.112 51.072-114.112 114.112s51.072 114.112 114.112 114.112c63.04 0 114.112-51.072 114.112-114.112S914.688 397.888 851.648 397.888z" p-id="2663" fill="#ffffff"></path></svg>