<?xml version="1.0" standalone="no"?><!DOCTYPE svg PUBLIC "-//W3C//DTD SVG 1.1//EN" "http://www.w3.org/Graphics/SVG/1.1/DTD/svg11.dtd"><svg t="1574754396835" class="icon" viewBox="0 0 1024 1024" version="1.1" xmlns="http://www.w3.org/2000/svg" p-id="1971" xmlns:xlink="http://www.w3.org/1999/xlink" width="250" height="250"><defs><style type="text/css"></style></defs><path d="M407.359 555.27c-147.222 0-267.033-119.811-267.033-267.033S260.137 21.204 407.359 21.204s267.033 119.811 267.033 267.033c0 147.394-119.64 267.033-267.033 267.033z m0-478.039c-116.364 0-211.179 94.642-211.179 211.178 0 116.364 94.643 211.179 211.179 211.179s211.178-94.643 211.178-211.179S523.895 77.231 407.36 77.231z m0 0" fill="#333333" p-id="1972"></path><path d="M662.842 543.203c-14.136 0-26.204-10.689-27.928-24.825s7.586-27.237 21.55-30.513c96.02-22.238 163.08-106.882 163.08-205.662 0-121.707-87.574-217.04-199.283-217.04-15.342 0-27.927-12.584-27.927-27.927 0-15.342 12.585-27.927 27.927-27.927C763.345 9.31 875.4 129.293 875.4 282.203c0 124.984-84.816 231.866-206.351 260.138-2.069 0.69-4.138 0.862-6.206 0.862z m0 0" fill="#333333" p-id="1973"></path><path d="M497.002 559.752c-204.972 0-371.157 166.357-371.157 371.33 0 2.413 0.173 7.067 0.173 7.067s63.44 68.612 410.979 67.06c74.128-15.342 219.625-86.54 219.625-86.54-17.411-197.56-94.125-305.648-259.62-358.917z m0 0" fill="#FFC824" p-id="1974"></path><path d="M431.838 1014.69c-131.534 0-236.002-11.032-310.303-32.926-59.647-17.584-82.747-37.236-89.815-44.821-8.964-9.654-13.964-22.239-14.136-35.513v-7.24C17.41 679.564 191.87 505.104 406.669 505.104c214.627 0 389.258 174.46 389.258 389.086 0 17.239-8.274 33.444-22.41 43.442-3.104 2.241-31.548 21.894-86.885 40.684-70.853 24.135-152.91 36.375-243.933 36.375h-10.86zM73.266 899.535c3.448 2.93 20.687 16.377 66.543 29.306 47.58 13.62 137.05 29.824 291.857 29.824h10.86c105.676 0 181.183-18.101 225.832-33.271 42.753-14.481 66.198-29.134 71.37-32.582-0.69-183.079-149.98-331.852-333.231-331.852-183.768 0-333.231 149.463-333.231 333.23v5.345z m0 0" fill="#333333" p-id="1975"></path><path d="M978.834 918.67c-15.343 0-27.928-12.585-27.928-27.928 0-191.526-170.666-324.784-288.581-343.574-7.413-1.207-13.964-5.172-18.274-11.206s-6.033-13.446-5-20.859c2.414-15.343 16.723-25.686 32.065-23.273 137.223 21.894 335.645 176.528 335.645 398.912 0 15.343-12.585 27.927-27.927 27.927z m0 0" fill="#333333" p-id="1976"></path></svg>